<svg width="25" height="25" xmlns="http://www.w3.org/2000/svg" xmlns:undefined="http://www.bohemiancoding.com/sketch/ns" version="1.1">
 <title>cross</title>
 <desc>Created with Sketch Beta.</desc>

 <g>
  <title>Layer 1</title>
  <g  fill-rule="evenodd" fill="none" id="Page-1">
   <g fill="#000000"  id="Icon-Set-Filled">
    <path  id="cross" d="m18.148,12.48l5.665,-5.66c1.563,-1.56 1.563,-4.1 0,-5.66c-1.565,-1.57 -4.101,-1.57 -5.665,0l-5.664,5.66l-5.664,-5.66c-1.563,-1.57 -4.099,-1.57 -5.664,0c-1.563,1.56 -1.563,4.1 0,5.66l5.664,5.66l-5.664,5.67c-1.563,1.56 -1.563,4.1 0,5.66c1.565,1.57 4.101,1.57 5.664,0l5.664,-5.66l5.664,5.66c1.564,1.57 4.1,1.57 5.665,0c1.563,-1.56 1.563,-4.1 0,-5.66l-5.665,-5.67"/>
   </g>
  </g>
 </g>
</svg>